/* XPM */
static char * about16x16_xpm[] = {
"16 16 131 2",
"  	c None",
". 	c #CECEF2",
"+ 	c #CECEEF",
"@ 	c #D2D2EF",
"# 	c #D1D1EC",
"$ 	c #C9C9E4",
"% 	c #BCBCD9",
"& 	c #D4D4FB",
"* 	c #E8E8FC",
"= 	c #F3F3FD",
"- 	c #FAFAFF",
"; 	c #FFFFFF",
"> 	c #FEFEFF",
", 	c #FCFCFF",
"' 	c #EDEDFC",
") 	c #DADAF1",
"! 	c #BEBEDB",
"~ 	c #D6D6FD",
"{ 	c #F8F8FE",
"] 	c #6B89C7",
"^ 	c #355AAF",
"/ 	c #ACBDE2",
"( 	c #F0EFFF",
"_ 	c #E5E5FF",
": 	c #E4E4FF",
"< 	c #C7C7E4",
"[ 	c #828297",
"} 	c #EFEFFD",
"| 	c #FBFAFF",
"1 	c #7D99D3",
"2 	c #3B64B9",
"3 	c #BFCCEC",
"4 	c #EEEDFF",
"5 	c #E3E3FF",
"6 	c #DEDEFF",
"7 	c #DDDDFD",
"8 	c #B3B3D0",
"9 	c #D5D5F6",
"0 	c #FDFDFF",
"a 	c #FBFBFF",
"b 	c #F6F5FF",
"c 	c #E0E7F8",
"d 	c #B7CCED",
"e 	c #9BBAE4",
"f 	c #D4DDF6",
"g 	c #EAE9FF",
"h 	c #E1E1FF",
"i 	c #DBDBFF",
"j 	c #D6D6FF",
"k 	c #DDDDFF",
"l 	c #5F5F6A",
"m 	c #D8D8F6",
"n 	c #F5F5FF",
"o 	c #F5F4FF",
"p 	c #C2D4F1",
"q 	c #4888D1",
"r 	c #2E79CB",
"s 	c #C1D0F2",
"t 	c #E9E7FF",
"u 	c #D9D9FF",
"v 	c #D1D1FF",
"w 	c #676776",
"x 	c #CCCCEB",
"y 	c #F4F4FF",
"z 	c #F2F2FF",
"A 	c #FAF8FF",
"B 	c #679EE1",
"C 	c #005DC9",
"D 	c #B3C9F3",
"E 	c #E5E3FF",
"F 	c #D5D5FF",
"G 	c #D2D2FF",
"H 	c #D3D3F3",
"I 	c #43434A",
"J 	c #B8B8DA",
"K 	c #EAEAF9",
"L 	c #F1F1FF",
"M 	c #F1F0FF",
"N 	c #FAF7FF",
"O 	c #68A7EA",
"P 	c #006EDA",
"Q 	c #BACEF7",
"R 	c #E6E1FF",
"S 	c #D7D7FF",
"T 	c #DBDBFE",
"U 	c #A5A5B9",
"V 	c #121213",
"W 	c #AFAFCE",
"X 	c #EAEAF7",
"Y 	c #F2F0FF",
"Z 	c #98C8F9",
"` 	c #098AF0",
" .	c #0B8CF0",
"..	c #2696F2",
"+.	c #B9CDFD",
"@.	c #D3D3FF",
"#.	c #AFAFC5",
"$.	c #3B3B42",
"%.	c #A5A5BD",
"&.	c #D0D0E5",
"*.	c #EFEEFF",
"=.	c #D7E2FE",
"-.	c #B0D2FD",
";.	c #B0D0FD",
">.	c #AECCFD",
",.	c #CFD3FF",
"'.	c #CDCDFF",
").	c #838399",
"!.	c #9A9AB1",
"~.	c #ACACC7",
"{.	c #ADADC9",
"].	c #B4B4D3",
"^.	c #CFCFFD",
"/.	c #CECEFB",
"(.	c #C5C5E0",
"_.	c #353538",
":.	c #828295",
"<.	c #CACAF1",
"[.	c #D0D0F2",
"}.	c #9494A4",
"|.	c #09090A",
"1.	c #9898AA",
"2.	c #D0D0EF",
"3.	c #9A9AAC",
"4.	c #2C2C2F",
"5.	c #9999AE",
"6.	c #9393A7",
"7.	c #303033",
"8.	c #707079",
"9.	c #3D3D41",
"0.	c #0B0B0C",
"        . + @ # $ %             ",
"    & * = - ; > , ' ) !         ",
"  ~ { > , > ] ^ / ( _ : < [     ",
"  } > , - | 1 2 3 4 5 6 7 8     ",
"9 0 0 a b c d e f g h i j k l   ",
"m ; , n o p q r s t 6 u v h w   ",
"x { y z z A B C D E i F G H I   ",
"J K z L M N O P Q R S v T U V   ",
"  W X L Y Z `  ...+.@.: #.$.    ",
"    %.&.*.=.-.;.>.,.'.: w       ",
"        ).!.~.{.].^./.(._.      ",
"                :.<.[.}.|.      ",
"                1.2.3.4.        ",
"                5.6.7.          ",
"              8.9.0.            ",
"                                "};
