/* XPM */
static char * close_xpm[] = {
"13 13 16 1",
" 	c None",
".	c #8BA9CD",
"+	c #2360A5",
"@	c #00459A",
"#	c #1F5AA3",
"$	c #A5BDDB",
"%	c #FFFFFF",
"&	c #094A9B",
"*	c #ABC3DD",
"=	c #93B0D3",
"-	c #BBBDC1",
";	c #FF0000",
">	c #E2E6EA",
",	c #97AFCD",
"'	c #84A2C8",
")	c #10509E",
" .+@@@@@@@+. ",
".#$%%%%%%%$&.",
"+*%%%%%%%%%=+",
"@%%%%%%%%%%-@",
"@%%%;%%%;%%-@",
"@%%%%;%;%%%-@",
"@%%%%%;%%%%-@",
"@%%%%;%;%%%-@",
"@%%%;%%%;%%-@",
"@>%%%%%%%%%-@",
"#,%%%%%%%%-'#",
"'&---------)'",
" '#@@@@@@@#' "};
