/* XPM */
static char *config16x16[]={
"16 16 147 2",
"Qt c None",
"ao c #3e3d3e",
"#p c #444344",
"#D c #474647",
"#R c #4d4c4d",
"#2 c #515051",
"a# c #555455",
"ag c #575657",
"am c #585858",
"ap c #595859",
"#r c #5b5b5b",
".b c #5e5d5e",
".g c #6790a1",
"#9 c #686768",
"#f c #6991a0",
".L c #6c696d",
"#F c #6d696d",
".a c #6e6c6e",
"#a c #706d70",
".z c #716f72",
"ac c #737073",
".o c #73a1b3",
".Y c #747274",
"aj c #757475",
".X c #758087",
"#w c #76919b",
"#T c #777377",
"#n c #787578",
".m c #79c9e9",
"#0 c #7a767a",
".u c #7acaea",
"#Z c #7b8991",
".E c #7bcbea",
"#B c #7c777c",
"ab c #7c797c",
".p c #7c7a7f",
"#O c #7c8a94",
"#A c #7c8b95",
".Q c #7ccded",
".n c #7cd7fd",
"#4 c #7d797d",
"al c #7d7a7d",
"#m c #7d8d97",
".2 c #7dd0f0",
".v c #7dd8fc",
".3 c #7dd9fc",
".F c #7dd9fd",
"#P c #7e7c7e",
".1 c #7e848b",
"#Y c #7e8c91",
".P c #7e96a2",
"af c #7f7c7f",
"#. c #807a81",
"ae c #817f81",
".9 c #81929c",
"#6 c #827e82",
"a. c #827f82",
"#L c #829197",
".t c #8396a1",
".D c #8398a4",
"#5 c #848084",
"#1 c #858285",
"#c c #868386",
".l c #8699a2",
".h c #87888a",
"ai c #888588",
".k c #888688",
".e c #888788",
".f c #8898a1",
"ak c #898689",
".M c #898889",
".G c #89dfff",
"#Q c #8a868a",
".s c #8a888a",
".w c #8adeff",
"#U c #8b888b",
"ad c #8b8b8b",
".y c #8babb7",
".R c #8bdfff",
"#g c #8cdefe",
".4 c #8cdeff",
".O c #8d898d",
".C c #8d8b8d",
"#C c #8e8a8e",
".A c #919091",
"#o c #938f93",
"#v c #948f94",
".Z c #949494",
"#K c #959095",
"#G c #959195",
"#V c #969196",
"## c #969396",
".q c #989798",
".x c #9ce3ff",
".i c #9d9c9d",
".S c #9de3ff",
".H c #9de4ff",
".5 c #9ee4ff",
"#H c #9f999f",
".K c #9fb2b8",
"#h c #9fe4ff",
"#7 c #a09ea0",
"#8 c #a19da1",
".c c #a1a0a1",
"#e c #a29ea2",
"#X c #a49fa4",
"#s c #aca5ac",
"#J c #afaaaf",
"#d c #b1aab1",
".I c #b1eaff",
"#u c #b2acb2",
"#q c #b2afb2",
"#x c #b2e7fa",
".T c #b3eaff",
"#E c #b4b1b4",
"#I c #b4b2b4",
"#i c #b4eaff",
"#S c #b5b2b5",
"#3 c #b6b3b6",
"aa c #b7b5b7",
"ah c #b8b7b8",
"an c #bbb9bb",
"#W c #bdb8bd",
"#t c #bdbbbd",
"aq c #bebcbe",
"#b c #bebebe",
".0 c #c1c1c1",
".J c #c4efff",
".N c #c5c5c5",
".U c #c5efff",
"#N c #c6e9f8",
".6 c #c6efff",
"#j c #c7efff",
"#z c #c8ecfa",
"#y c #c8f0ff",
".B c #c9c9c9",
"#l c #cbf0fe",
".r c #cdcdcd",
".W c #cdf0ff",
".8 c #cdf1ff",
"#M c #ceecf8",
".j c #d0d0d0",
".V c #d3f3ff",
"#k c #d4f3ff",
".d c #d5d5d5",
".7 c #d6f3ff",
".# c #d9d9d9",
"QtQtQtQtQtQtQt.#.a.b.cQtQtQtQtQt",
"QtQtQtQtQtQt.d.e.f.g.h.iQtQtQtQt",
"QtQtQtQtQt.j.k.l.m.n.o.p.qQtQtQt",
"QtQtQtQt.r.s.t.u.v.w.x.y.z.AQtQt",
"QtQtQt.B.C.D.E.F.G.H.I.J.K.L.MQt",
"QtQt.N.O.P.Q.v.R.S.T.U.V.W.X.Y.Z",
"Qt.0.k.1.2.3.4.5.T.6.7.8.9#.###a",
"#b#c#d#e#f#g#h#i#j#k#l#m#n#o#p#q",
"#r#s#t#u#v#w#x#y.V#z#A#B#C#D#EQt",
"#F#G#H#I#J#K#L#M#N#O#P#Q#R#SQtQt",
"Qt#T#U#V#W#X#n#Y#Z#0#1#2#3QtQtQt",
"QtQt#4#5#6#7#8#9#Ba.a#aaQtQtQtQt",
"QtQtQt#5abacadaeafagahQtQtQtQtQt",
"QtQtQtQtaiajakalamanQtQtQtQtQtQt",
"QtQtQtQtQt#UaoapaqQtQtQtQtQtQtQt",
"QtQtQtQtQtQtQtQtQtQtQtQtQtQtQtQt"};
