/* XPM */
static char *fetch16x16[]={
"16 16 166 2",
".j c None",
"#y c #0000c0",
".S c #0000ff",
"#j c #58a8ff",
"#A c #7aad77",
"#i c #86939b",
".Q c #888384",
"ak c #8b8882",
"#z c #8c8882",
"a# c #8c8884",
"#s c #8ca384",
"#4 c #8da5af",
".K c #90918e",
"aa c #919094",
".R c #928f8c",
".F c #93908d",
"aH c #94897c",
"am c #949093",
"aw c #95928e",
".2 c #968b88",
"#H c #969c8e",
"#r c #979688",
"ay c #999292",
"#R c #9aa093",
"#C c #9ac88c",
"#I c #9ada97",
"#J c #9ae19b",
"az c #9b9693",
".B c #9d8e89",
".q c #9d908c",
"#1 c #9da096",
"#D c #9da398",
"aF c #9e9386",
"ar c #9e948c",
"#L c #9ea39f",
"#T c #9edeb2",
"aE c #9f9388",
".e c #9f9491",
"aD c #9f958b",
"aG c #a09185",
"aA c #a09791",
"#x c #a0b3b8",
"aC c #a1978e",
".u c #a19d9a",
".D c #a19da0",
"#k c #a19e8f",
"aI c #a19f9d",
"aB c #a29890",
".f c #a29896",
"#U c #a2c9bd",
"an c #a3a9a9",
"af c #a49891",
"as c #a49a92",
"#u c #a4b392",
".N c #a69388",
".s c #a6a0a1",
"#E c #a7dcf3",
"av c #a89684",
"ao c #a8a6a5",
"#g c #aa9e8c",
"#q c #aaaeac",
"#K c #aadaba",
"aq c #ac9f96",
".a c #aca59b",
"#l c #acb299",
"ab c #acbcbd",
"Qt c #ada294",
"ag c #ada49d",
"#d c #adaa9f",
".d c #ae9e96",
".m c #aea99c",
"#3 c #aee0e1",
"#S c #aee3ab",
".g c #afa6a4",
"ac c #afb8b9",
"#v c #afbab2",
".r c #b0a9aa",
"#V c #b0ada7",
"#n c #b0ae9b",
"#8 c #b1a298",
".8 c #b2a189",
"#P c #b2a499",
".i c #b2adaa",
"#B c #b2f3b1",
".P c #b3afb0",
"#b c #b4a99c",
"#Q c #b4b4b4",
".h c #b5aca9",
".x c #b5b2a1",
"## c #b5c0c4",
".1 c #b6b9b9",
"#w c #b6cfb5",
".Y c #b7a692",
"ae c #b7a99f",
"#p c #b7be99",
".k c #b8ae9f",
"at c #b9a794",
"#Z c #baa89b",
".3 c #bab1a7",
"#o c #bac6c2",
"aj c #bba38d",
"#0 c #bba694",
"ap c #bbab9f",
".c c #bcaca3",
".O c #bcb7b5",
".t c #bcb7b6",
".C c #bcb8bb",
".E c #bcbbbb",
"#a c #bcbcbc",
"#G c #bcc8c8",
".M c #bdada2",
".T c #bdb4ab",
"#. c #bdbcb2",
".Z c #bea68e",
".H c #bfb7ad",
"#F c #bfe1e8",
".p c #c0ada3",
".v c #c0b8a9",
"au c #c2aa98",
"al c #c2c2c2",
".b c #c3b7ad",
".L c #c4bcab",
".0 c #c5c0b6",
".o c #c6b7af",
"#e c #c6b9ad",
"#2 c #c6e2c2",
".# c #c7c0a1",
"#M c #c7c3bc",
"#f c #c7d1d3",
"#9 c #c8b3a5",
"#m c #c8c6aa",
".X c #c9c7c2",
".W c #c9cec7",
"ad c #cab9ad",
"#t c #cadaaf",
".7 c #ccced0",
"a. c #ceb097",
"ah c #ceb6a0",
".A c #ceb9ad",
".z c #cec0b7",
"#5 c #cfbeb2",
".9 c #d0b69a",
".G c #d0d0d0",
"#Y c #d2b9a8",
"ax c #d5d5d5",
"aJ c #d7d7d7",
"#W c #d8c1b0",
"ai c #ddbea8",
".n c #ddcdbe",
"#O c #dec7b6",
"#7 c #dfc4b2",
"#N c #e1cdbf",
"#h c #e2d0be",
".l c #e3dfaa",
".6 c #e3e7dd",
"#X c #e5c7b4",
".J c #e6e5cf",
"#6 c #e8c6b0",
".y c #ead8c6",
".5 c #efeed0",
"#c c #f0e5c5",
".V c #f5f4d6",
".4 c #f8f6d5",
".U c #fafad7",
".w c #fbfab6",
".I c #fbfbd5",
"Qt.#.a.b.c.d.e.f.g.h.i.j.j.j.j.j",
".k.l.m.n.o.p.q.r.s.t.u.j.j.j.j.j",
".v.w.x.y.z.A.B.C.D.E.F.G.j.j.j.j",
".H.I.J.K.L.M.N.O.P.Q.R.S.j.j.j.j",
".T.U.V.W.X.Y.Z.0.1.2.S.S.j.j.j.j",
".3.4.5.6.7.8.9#.##.S.S.S#a#a#a#a",
"#b#c#d#e#f#g#h#i#j.S.S.S.S.S.S.S",
"#k#l#m#n#o#p#q#j.S.S.S.S.S.S.S.S",
"#r#s#t#u#v#w#x#y.S.S.S.S.S.S.S.S",
"#z#A#B#C#D#E#F#G#y.S.S.S#y#y#y#y",
"#H#I#J#K#L#M#N#O#P#y.S.S#Q#Q#Q#Q",
"#R#S#T#U#V#W#X#Y#Z#0#y.S.j.j.j.j",
"#1#2#3#4#5#6#7#8#9a.a##y.j.j.j.j",
"aaabacadaeafagahaiajakal.j.j.j.j",
"amanaoapaqarasatauavawax.j.j.j.j",
"ayazaAaBaCaDaEaFaGaHaIaJ.j.j.j.j"};
