/* XPM */
static char *gps16x16[]={
"16 16 139 2",
"Qt c None",
"#F c #089c5d",
".S c #0b9462",
".5 c #0b9464",
".4 c #0b9e5b",
".R c #0c9e5b",
".D c #0ea164",
".E c #139263",
"#T c #16857a",
"#x c #179d85",
"#U c #1c8da7",
"#j c #1c958b",
"#A c #1f9dd6",
"#w c #20a849",
"#E c #20b193",
"#H c #22aaeb",
".3 c #26a84c",
".C c #26b167",
"#5 c #2782ad",
".Q c #27a84d",
"#6 c #297fae",
"#V c #2a8fc2",
"#k c #2b8486",
"#B c #2b8cbd",
".q c #2baa80",
"#G c #2cb9ef",
"#q c #30b08c",
"#r c #31b9b9",
"#y c #31bbd5",
"#z c #31bef4",
".T c #32885a",
"#W c #3289bd",
".6 c #33895b",
"#7 c #347da9",
"#S c #349cb0",
"#v c #36af5e",
".p c #39ba92",
"#4 c #3b8697",
".r c #3c9c79",
"#s c #3f788c",
"ae c #406e8e",
"#l c #417377",
"#L c #43b5ce",
"#8 c #447ba2",
"af c #456a86",
"ad c #497a9a",
"#p c #49b13f",
".B c #4abf6a",
".F c #4b926e",
"#X c #4c82a8",
".P c #4fb548",
".2 c #4fb64d",
".7 c #527a5d",
".o c #52c499",
"ag c #566f85",
"#M c #588ab0",
"#N c #5b768c",
"#9 c #5b7992",
"#Y c #5b7a95",
"#m c #617578",
"#t c #627880",
".U c #628971",
"#I c #637785",
"#o c #64bd69",
".8 c #65736e",
"#3 c #65a2bb",
"#R c #6cb4cc",
".e c #6ebeca",
".n c #70c995",
"a. c #718190",
".d c #71bec9",
"#n c #71c29a",
"#O c #727d85",
".A c #73c86c",
".f c #76bcb5",
"#Z c #788695",
"#K c #79c2e0",
".s c #7ca793",
"#i c #7dc136",
".O c #7dc44d",
".c c #7ebeb2",
"#h c #80c448",
"ac c #829fb4",
"#g c #84c576",
"ah c #858c96",
".G c #88a595",
"#u c #8ac6dc",
".m c #8ac9a0",
"#f c #8ec5c4",
"#C c #8f9397",
".z c #94d07d",
".V c #979e99",
"#J c #999c9d",
".g c #99beb1",
".l c #9cc8b4",
"#0 c #9ea1a6",
"#2 c #9ebdcd",
"#b c #9ece38",
"a# c #9fa3ab",
".y c #a0d29c",
"#a c #a0d34a",
"## c #a1d47b",
".b c #a2c5a5",
"#D c #a5cddc",
"#Q c #a6c8da",
".1 c #a6d38b",
".N c #aad75e",
".x c #afd2be",
".L c #afdbae",
"ai c #b0b1b6",
".K c #b0d6d3",
".t c #b2c1b9",
".Y c #b3ddb6",
"ab c #b4c1cb",
"#P c #b5b5b6",
".M c #b7e07e",
".Z c #b7e084",
".k c #b9cec7",
".H c #bbbfbd",
".X c #bbd3db",
".0 c #bcdc62",
"#d c #c00000",
".a c #c1cec0",
".w c #c1d4d6",
".h c #c2ceca",
"#. c #c3c3c3",
"aa c #c7c5c8",
"#1 c #cbcacb",
".J c #cdd7db",
".W c #cfd0d1",
".# c #d2d6d2",
".j c #d2d6d6",
".i c #d4d7d6",
".u c #d6d6d6",
".v c #d7dadb",
".I c #d8d9d9",
"#e c #ff0000",
"#c c #ffff00",
".9 c #ffffff",
"QtQtQtQtQtQtQtQtQtQtQtQtQtQtQtQt",
"QtQtQt.#.a.b.c.d.e.f.g.h.iQtQtQt",
"QtQt.j.k.l.m.n.o.p.q.r.s.t.uQtQt",
"Qt.v.w.x.y.z.A.B.C.D.E.F.G.H.IQt",
"Qt.J.K.L.M.N.O.P.Q.R.S.T.U.V.WQt",
"Qt.X.Y.Z.0.1.O.2.3.4.5.6.7.8.9Qt",
".9#.###a#b#b#c#d#d#d#d#e#e#e.9Qt",
".9#f#g#h#i#d#d#d#d#j#j#k#l#m#.Qt",
"Qt#.#n#o#d#p#d#q#r#d#d#d#s#t#.Qt",
"Qt#u#.#d#v#w#x#d#y#z#A#B.9#.#CQt",
"Qt#D.9.9#E#F#x#d#G#H#.#..9#I#JQt",
"QtQt#K#L#.#..9.9#.#.#M#M#N#O#PQt",
"QtQt#Q#R#S#T#U#V#V#W#X#Y#Z#0#1Qt",
"QtQtQt#2#3#4#5#6#7#8#9a.a#aaQtQt",
"QtQtQtQtabacadaeafagahaiQtQtQtQt",
"QtQtQtQtQtQtQtQtQtQtQtQtQtQtQtQt"};
