/* XPM */
static char * hp_xpm[] = {
"13 13 22 1",
" 	c None",
".	c #000000",
"+	c #A5BDDB",
"@	c #84A2C8",
"#	c #00459A",
"$	c #002D64",
"%	c #EFF5F7",
"&	c #BBBDC1",
"*	c #EEEEEE",
"=	c #1F5AA3",
"-	c #E2E6EA",
";	c #FFFFFF",
">	c #8BA9CD",
",	c #094A9B",
"'	c #97AFCD",
")	c #F5F8FB",
"!	c #2360A5",
"~	c #ABC3DD",
"{	c #84B7C6",
"]	c #F6F6F6",
"^	c #10509E",
"/	c #93B0D3",
" >!#######!> ",
">=+;;;;;;;+,>",
"!~;;;;$;;;;/!",
"#;;;;$$;;.;&#",
"#;;;$;$;.;;&#",
"#;$$;;$;;;;&#",
"#;$;;$;;..;&#",
"#;$$;;$;;;;&#",
"#;;;$;$;.;;&#",
"#-;;;$$;;.;&#",
"=';;;;$;;;&@=",
"@,&&&&&&&&&^@",
" @=#######=@ "};
