/* XPM */
static char *mapinfo16x16[]={
"16 16 196 2",
"Qt c None",
"#c c #009562",
".q c #08895a",
"an c #088d62",
"#a c #089552",
"ae c #089562",
".O c #08956a",
".B c #089973",
".p c #089d62",
"ad c #089d6a",
".N c #08a162",
"#4 c #08a552",
".M c #08a55a",
"aJ c #106d9c",
"#r c #10815a",
"aK c #1081c5",
"#b c #10995a",
"#5 c #10a15a",
".A c #10aa5a",
".Z c #10ae5a",
".o c #10c28b",
"ay c #188562",
".0 c #188d5a",
".P c #189162",
"ax c #189dd5",
"am c #18a59c",
"#R c #18ae52",
"#3 c #18ae6a",
"ac c #18b294",
"bb c #201818",
"#s c #207162",
"az c #20818b",
".C c #209162",
"#d c #298d5a",
"#q c #2991ac",
"#o c #29a56a",
"av c #312c29",
"a5 c #313029",
"#p c #3199a4",
".z c #31b24a",
"al c #31caff",
".e c #39a5cd",
".d c #39b2de",
".n c #39daac",
"a8 c #413c41",
"a9 c #414041",
"ao c #417583",
"## c #41a552",
"#Q c #41ae41",
".L c #41b641",
"aa c #41c6f6",
"#M c #4a3c31",
"aU c #4a4441",
"#f c #4a615a",
"#u c #4a6573",
"aL c #4a7994",
".r c #4a896a",
"aw c #4a9dd5",
".c c #4ab2c5",
"a6 c #524439",
"#Z c #524839",
"ba c #525041",
"b. c #52504a",
"#v c #525062",
".2 c #52594a",
"#t c #526d62",
".Q c #527552",
"aC c #52899c",
"aI c #528db4",
".f c #52b2a4",
"#x c #52b2bd",
"#C c #52b64a",
"#2 c #52d2de",
"ab c #52daff",
"aj c #5a4439",
"a. c #5a4839",
"a7 c #5a5052",
"b# c #5a5541",
".D c #5a715a",
"#6 c #5a8562",
"#n c #5aa57b",
"#N c #5ab6e6",
"#1 c #5adeff",
"#g c #626d73",
".R c #627173",
"aW c #627994",
"#e c #627d5a",
"#S c #62916a",
"#D c #629173",
".b c #62ae83",
"ak c #62aede",
"#. c #62b631",
"#B c #62ba39",
"#P c #62be9c",
".m c #62de9c",
".1 c #6a8562",
"af c #6a8d8b",
"aA c #6a91ac",
".K c #6aae4a",
"#m c #6aae52",
"#y c #6ab24a",
".y c #6ac239",
"#O c #6adeff",
"aX c #73717b",
"#z c #73ba39",
"#A c #73c239",
"#h c #73c2ac",
"at c #7b9194",
"#0 c #7bbee6",
"#H c #838573",
"#I c #838983",
"au c #839194",
"#l c #83c231",
".j c #83c6b4",
".k c #83cab4",
".Y c #83da52",
".l c #83deac",
"ah c #83e6ff",
".g c #8bbab4",
"aq c #948173",
"ap c #94817b",
".J c #94c241",
"#j c #94ca31",
"#k c #94ca39",
"#i c #94d241",
".X c #94d673",
"#F c #9ca594",
".I c #9cc229",
".4 c #9ccade",
".x c #9cda6a",
".u c #9cdaff",
"#J c #a49d94",
"#w c #a49da4",
".3 c #a4a1a4",
"#G c #a4b2b4",
"aY c #a4ced5",
".F c #a4daf6",
".9 c #a4e27b",
"#8 c #ac998b",
"ag c #ac999c",
"aP c #aca17b",
"aQ c #aca194",
"aD c #acaa83",
".7 c #acd629",
".T c #aceee6",
"#K c #b49d8b",
"#X c #b4a194",
"#E c #b4b68b",
"aV c #b4b6c5",
".a c #b4ceac",
"#L c #bd9d8b",
"#7 c #bda18b",
".6 c #bdda18",
"a# c #bddaff",
".W c #bde2bd",
".w c #bdea8b",
".8 c #bdee83",
".G c #bdeeac",
".5 c #bdf28b",
".E c #c5bac5",
"a1 c #c5c6ac",
"aH c #c5cede",
".H c #c5da6a",
"aO c #c5dade",
"ar c #c5ded5",
".S c #c5e2ff",
".v c #c5fabd",
"ai c #c5ffff",
"#W c #cdae9c",
"a0 c #cdbecd",
"aT c #cdc6c5",
".i c #cddacd",
".V c #cdee83",
"#U c #d5c2bd",
".s c #d5ced5",
"aN c #d5d2c5",
"aG c #decac5",
"as c #decebd",
".h c #dee6e6",
"aF c #e6d2bd",
"aS c #e6d2cd",
"#9 c #e6e6d5",
".# c #e6eade",
".t c #e6eeff",
"aM c #eeceb4",
"#Y c #eed2c5",
".U c #eefa5a",
"aB c #f6dec5",
"aR c #f6f2c5",
"#V c #ffd2b4",
"#T c #ffd6b4",
"aZ c #ffdac5",
"a4 c #fff2c5",
"aE c #fff2de",
"a3 c #ffffc5",
"a2 c #ffffd5",
"QtQtQt.#.a.b.c.d.e.f.g.hQtQtQtQt",
"QtQt.i.j.k.l.m.n.o.p.q.r.sQtQtQt",
"Qt.t.u.v.w.x.y.z.A.p.B.C.D.EQtQt",
"Qt.F.G.H.I.J.K.L.M.N.O.P.Q.RQtQt",
".S.T.U.V.W.X.Y.L.Z.p.O.0.1.2.3Qt",
".4.5.6.7.8.9#.###a#b#c#d#e#f#gQt",
"#h#i#j#k#l#m#n#o#p#q#r#s#t#u#v#w",
"#x#y#z#A#B#C#D#E#F#G#H#I#J#K#L#M",
"#N#O#P#Q.z#R#S#T#U#V#W#X#Y#T#T#Z",
"#0#1#2#3#4#5#6#T#V#U#7#8#V#T#9a.",
"a#aaabacadaeaf#T#T#Tag#Lahai#Taj",
"Qtakalamaeanaoapaqaparasatauaqav",
"QtQtawaxayazaA#T#TaBaCaDaEaFaG#Z",
"QtQtaHaIaJaKaLaMaNaOaPaQaRaSaTaU",
"QtQtQtQtaVaWaXaY.#aZa0a1a2a3a4aj",
"QtQtQtQtQtQta5a.a6a7a8a9b.b#babb"};
