/* XPM */
static char *map16x16[]={
"16 16 202 2",
"Qt c None",
".y c #079766",
"#7 c #07a053",
"ai c #07a153",
"aL c #089168",
".K c #089764",
"ay c #089765",
"#a c #089767",
".Y c #089867",
"## c #089e5d",
"aj c #089f5a",
".X c #089f5b",
".J c #089f5d",
".x c #089f5f",
"#q c #099263",
"ax c #099b63",
"a9 c #0b78b4",
"aM c #0b8d62",
".Z c #0c9160",
".z c #0f8b5a",
".L c #0f9060",
"#b c #0f9061",
".n c #0faf7c",
"#p c #108b63",
".w c #10b356",
".o c #118b5f",
"aD c #118bce",
"#r c #118c5d",
"a8 c #1273ab",
"ap c #1287c7",
"aa c #138dc7",
"ak c #139472",
"#6 c #13a94a",
"#G c #147e5f",
"az c #16937f",
"#. c #16a649",
"ao c #179ee3",
"aP c #189ada",
"aC c #19a0e5",
"#8 c #1a9e82",
"#X c #1b85bb",
".I c #1ba849",
"aQ c #1c8fcf",
"#D c #1ca677",
".W c #1ca849",
"aX c #1e8c90",
"aZ c #1e95cc",
"b. c #1f79b0",
"aY c #207b6e",
"#F c #20a0a4",
"#C c #22af53",
"aN c #2398a8",
"a0 c #248ec2",
"a# c #24b0f3",
"aK c #25b3dc",
"#J c #264a5b",
"#5 c #26ac45",
"ab c #2886b9",
"aW c #2895d1",
"aB c #28b6f4",
".m c #29ccc6",
"a1 c #2a91cb",
"an c #2ab7f8",
"bb c #2b516e",
"#o c #2ba27d",
"#S c #2baa8e",
"ah c #2cb99c",
"#u c #2d4b59",
"b# c #2d78a8",
"#W c #2d7f7d",
"aw c #2dc1ca",
"#H c #2e819b",
"#R c #2ead5d",
"#V c #2ebaea",
"ba c #306a93",
"aO c #309fa9",
"as c #314047",
"aA c #32c1ed",
"ad c #34464b",
"al c #36c3e5",
"a. c #36c8ff",
"a7 c #37799f",
"aJ c #37ace3",
"aU c #384852",
"a5 c #385364",
"am c #38caff",
"#Z c #39515f",
"#4 c #3bae58",
"av c #3dd1fd",
"#U c #3dd4ff",
"#9 c #3ecbf0",
"af c #40c1e9",
"#E c #40c9e9",
"#n c #41a951",
"aE c #4693c4",
"#Q c #46b13d",
".M c #478355",
"a2 c #4793c3",
"bf c #48637a",
"aG c #486a84",
".0 c #488757",
"aR c #4897c6",
"#T c #49c5d9",
"bg c #4b6277",
"a4 c #4b7192",
"#c c #4b8657",
".l c #4bd8e1",
".v c #4cc65e",
".1 c #4d6553",
"#s c #4d7b57",
"bc c #4f5b6c",
"#e c #50585b",
".9 c #50b341",
".H c #52b440",
"ag c #56ddff",
"aq c #5796c0",
".V c #57b841",
".p c #58947a",
"au c #58b0d5",
"#P c #58b53e",
"be c #59758d",
"#Y c #598ca5",
".A c #5a8063",
"aH c #5b5f5c",
"#2 c #5bd6fa",
"aT c #5c80a1",
"#N c #5dac53",
"bh c #5e6a7c",
"a3 c #5e92ba",
"#M c #5fbda8",
"#O c #60b73a",
"ar c #6189a6",
"#t c #626f5c",
".N c #637167",
".j c #63b187",
".k c #67d7ca",
".i c #68a06b",
"#A c #68b43a",
"#m c #69b751",
"#d c #6a7252",
"#3 c #6dd8ea",
"#B c #6fc3a0",
"#I c #717463",
"aS c #719ec3",
".u c #73c95a",
"aF c #769dc1",
"ac c #778d9a",
"#z c #7cbf36",
".G c #7cc43e",
".c c #80b9d6",
".r c #80c6c2",
"#w c #80d35e",
".U c #81c364",
".8 c #81ce59",
".b c #83b2a4",
"#y c #83c233",
"#x c #84c231",
".d c #87b7da",
"#L c #89bfdd",
".C c #8cd1e4",
".3 c #8cd3de",
".T c #8dbd3f",
".P c #8dc1d8",
"#l c #8ed04c",
"#v c #8fbfe0",
".t c #91dca3",
"bd c #929eaa",
"aV c #96b5cc",
".2 c #979da1",
".s c #99e6cf",
"#1 c #9dc2d6",
"#j c #9fcd22",
"#k c #9fd238",
"#h c #9fe69e",
".e c #a1c2ca",
".S c #a3c588",
"a6 c #a4b6c3",
"#i c #a4d027",
".7 c #a9dfab",
".F c #aade4e",
"#g c #abc7e3",
".a c #abcca2",
".h c #aebea3",
".q c #b0c4c5",
"#0 c #b1b2b4",
"#K c #b4b3b6",
".Q c #b5f0c9",
"aI c #b6c7d3",
"#f c #b8b5b8",
".f c #bcd0c9",
".D c #bef0b0",
".6 c #c1e8b0",
".E c #c4e441",
"ae c #c6d2da",
".5 c #c6e020",
".B c #c8d3db",
".R c #c8df5d",
".4 c #d4f05a",
".# c #d8dbd9",
"at c #dcdcdd",
".O c #dddcde",
".g c #e0dddc",
"QtQtQtQt.#.a.b.c.d.e.fQtQtQtQtQt",
"QtQt.g.h.i.j.k.l.m.n.o.pQtQtQtQt",
"QtQt.q.r.s.t.u.v.w.x.y.z.AQtQtQt",
"Qt.B.C.D.E.F.G.H.I.J.K.L.M.NQtQt",
".O.P.Q.R.S.T.U.V.W.X.Y.Z.0.1.2Qt",
".B.3.4.5.6.7.8.9#.###a#b#c#d#e#f",
"#g#h#i#j#k#l#m#n#o#p#q#r#s#t#u#f",
"#v#w#x#y#z#A#B#C#D#E#F#G#H#I#J#K",
"#L#M#N#O#P#Q#R#S#T#U#V#W#X#Y#Z#0",
"#1#2#3#4#5#6#7#8#9a.a#aaabacad#f",
"aeafagahaiajakalamanaoapaqaras#f",
"atauavawaxayazaAaBaCaDaEaFaGaHQt",
"QtaIaJaKaLaMaNaOaPaQaRaSaTaUQtQt",
"QtQtaVaWaXaYaZa0a1a2a3a4a5QtQtQt",
"QtQtQta6a7a8a9b.b#babbbcQtQtQtQt",
"QtQtQtQtQtbdbebfbgbhQtQtQtQtQtQt"};
