/* XPM */
static char * route16x16_xpm[] = {
"16 16 8 1",
" 	c #0000FF",
".	c #1018FF",
"+	c #5A5AFF",
"@	c #7B7BFF",
"#	c #B5B5FF",
"$	c #E7E7FF",
"%	c #EFEFFF",
"&	c #FFFFFF",
"&&&&&&&&&&&&&&&&",
"&              &",
"&    .&  &.    &",
"&    .&  &.    &",
"&    .&  &.    &",
"&              &",
"&.&&       @&&.&",
"& &&.#&  &#.&& &",
"& &&.#&  &#.&& &",
"& ...%&  &%... &",
"&   @&&  &&+   &",
"&   @&&  &&@   &",
"&   #&&  &&#   &",
"&   #&&  &&#   &",
"&              &",
"&&&&&&&&&&&&&&&&"};
