/* XPM */
static char *track16x16[]={
"16 16 224 2",
"#S c #47aa3d",
"#8 c #56c653",
"#R c #64b759",
"#7 c #75d272",
"al c #75d771",
"bB c #80776e",
".u c #807d7a",
"#Q c #80b274",
"bC c #817a74",
"br c #817c7a",
"#O c #817f7b",
"ba c #837c74",
"bs c #837d77",
"ah c #837f79",
"#4 c #837f7a",
"aw c #847f79",
"bq c #847f80",
"aY c #857e77",
"aK c #857f79",
"#j c #878382",
"bA c #887e75",
"by c #8a7971",
"bz c #8a7f75",
"bw c #8b7069",
"bx c #8b746d",
"bv c #8b817a",
"bD c #8b8786",
"ak c #8bdf88",
"bu c #8c817a",
"bt c #8c827c",
"#6 c #8cc486",
".5 c #8e8685",
"bp c #8e8789",
"#9 c #8eae61",
"bb c #908b8e",
"aZ c #939091",
"am c #93d491",
".4 c #968c88",
".6 c #969294",
"bo c #978979",
"ax c #979d91",
"aj c #97cd93",
"aL c #999892",
"ai c #999f91",
"#i c #9a908b",
"#P c #9a9a8e",
"#5 c #9a9e90",
"bc c #9c9fa3",
"aP c #9cb9d0",
"#T c #9e8045",
"#N c #9fa19b",
".g c #a0918b",
"#y c #a09992",
"be c #a0a3a5",
"ay c #a1c99b",
".h c #a29897",
"bd c #a2a7ab",
"aA c #a4dd97",
"#z c #a59c90",
"#3 c #a5a69b",
"az c #a5df9d",
"b# c #a79480",
"ag c #a79d90",
"aJ c #a89687",
"Qt c #a89d8f",
"#X c #a8beda",
"av c #a99889",
"#h c #a9a4a2",
"bn c #ab9783",
".3 c #aca49e",
".R c #aca7ac",
"#k c #ada398",
"aB c #adf0d3",
".2 c #af8f89",
"a0 c #afb8b6",
".f c #b0a39d",
"aX c #b19b89",
"#K c #b1cee1",
".s c #b2a9a8",
"a2 c #b2c5c9",
"aC c #b2d8d9",
".7 c #b4aaa0",
".i c #b5ac9d",
"#x c #b5b4b1",
"#g c #b5bfc8",
".e c #b6a8a1",
"#J c #b7c0d0",
".t c #b8aaa8",
".# c #b8b09c",
"aO c #b8e1e2",
".F c #b9b0a8",
"#f c #b9b2b7",
"#Y c #b9dae6",
".S c #bab0a9",
"#M c #babcb6",
"#v c #bac7d4",
"a1 c #bac9c9",
"aa c #bacedc",
".d c #bbaea7",
".v c #bbb2a6",
"an c #bda48a",
".r c #bdaba3",
"aM c #bec9b9",
".c c #bfb6ad",
"bf c #c0b2a6",
"#2 c #c0c5b9",
".P c #c1aeab",
".a c #c1baa4",
"#w c #c1cdd7",
"af c #c2b8ab",
"bm c #c3a996",
"aI c #c3aa97",
".b c #c3baa8",
"au c #c4af9f",
"aD c #c4b4be",
"#A c #c4bc9e",
"b. c #c6ab93",
"bg c #c6b0a0",
"#r c #c6c1bf",
"a3 c #c6c4c2",
"a. c #c88863",
"bl c #c8a891",
"#I c #c8a8b0",
"aN c #c8e1d4",
".O c #c99189",
"aQ c #c9c3c0",
"ab c #c9d9dc",
".E c #caa99f",
"bh c #caaf9c",
"bi c #cbaf9c",
"#Z c #cbe2e0",
"bk c #cc8171",
"bj c #cd8676",
"#c c #cdacb4",
"#u c #d09fa4",
".q c #d0b3a1",
"aW c #d0b49d",
"#U c #d18263",
"#L c #d1cfcd",
"ac c #d1dbd8",
"ao c #d28d8c",
"#G c #d2bc9d",
".Q c #d2ced1",
"ad c #d2d4d2",
".L c #d3cdca",
"ae c #d3cfca",
"ap c #d4b8b8",
"at c #d4c4bb",
"#b c #d59ba1",
"#1 c #d5dbd4",
"#q c #d6b7b4",
".p c #d6c9c3",
"#l c #d6cfb3",
".j c #d6d1a8",
"#W c #d7616c",
"aH c #d7baa8",
".K c #d7e3ec",
"as c #d9d0ca",
".o c #daccc3",
"a4 c #dbc6b7",
".Y c #dc757c",
"a# c #dd7972",
"aq c #ddbfb8",
"#B c #ddc8a4",
"#F c #dec9b6",
"#0 c #ded6ca",
"ar c #dfc7be",
".n c #e0d4c6",
"a9 c #e1c2ab",
".8 c #e1dbc2",
".X c #e29297",
"#t c #e2968a",
"aE c #e38482",
"aV c #e3c8b5",
".G c #e3e0c5",
"#V c #e47870",
".B c #e4d8d1",
".T c #e4e0cc",
".w c #e4e1b6",
"#a c #e59393",
"#H c #e68680",
"aR c #e6cab7",
".Z c #e77e7a",
".M c #e7b88c",
".m c #e7e2cc",
"#p c #e89f99",
".D c #e8ab97",
"a5 c #e8c7b1",
".k c #e8e5b5",
".N c #e9796b",
".C c #e9d0bd",
".A c #e9e6dd",
".1 c #ea6354",
".l c #ebe8c4",
"#E c #ecb5a9",
"#e c #ee7f6b",
"a6 c #eec9af",
"#m c #efe3bf",
"a8 c #f08673",
"a7 c #f09f89",
"#s c #f0aa87",
"#C c #f0c2a3",
"aG c #f2cab3",
"aS c #f3ceb5",
".J c #f3f9f0",
"aF c #f67c6e",
"aU c #f68373",
"#d c #f6ad82",
"aT c #f6b9a1",
".0 c #f88f71",
".W c #f8d4c9",
"#n c #f9e0bc",
".z c #f9f8e2",
"#D c #fa7f75",
".9 c #faf4d1",
"## c #fb958b",
".x c #fbfbc6",
".H c #fbfbd8",
".U c #fbfbdb",
"#o c #fc796f",
"#. c #fef4cd",
".V c #ffffd5",
".y c #ffffd7",
".I c #ffffe1",
"Qt.#.a.b.c.d.e.f.g.h.f.f.f.f.f.f",
".i.j.k.l.m.n.o.p.q.r.s.t.t.t.t.u",
".v.w.x.y.z.A.B.C.D.E.t.t.t.t.t.u",
".F.G.H.I.J.K.L.M.N.O.P.Q.R.t.t.u",
".S.T.U.V.W.X.Y.Z.0.1.2.2.3.4.5.6",
".7.8.9#.###a#b#c#d#e.2#f#g#h#i#j",
"#k#l#m#n#o#p#q#r#s#t#u#v#w#x#y.u",
"#z#A#B#C#D#E#F#G#H#I#J#K#L#M#N#O",
"#P#Q#R#S#T#U#V#W#X#Y#Z#0#1#2#3#4",
"#5#6#7#8#9a.a#aaaaabacadaeafagah",
"aiajakalamanaoaaapaqarasatauavaw",
"axayazaAaBaCaDaEaFaGaGaGaHaIaJaK",
"aLaMaNaOaPaQaRaSaTaUaGaVaVaWaXaY",
"aZa0a1a2a3a4a5a6a7a8aGaVa9b.b#ba",
"bbbcbdbebfbgbhbibjbkaGblbmbnboaK",
"bpbqbrbsbtbubvbvbwbxbybzbAbBbCbD"};
